<svg width="80" height="80" viewBox="0 0 80 80" fill="none" xmlns="http://www.w3.org/2000/svg">
<path d="M51.9346 39.3197L31.9248 28.4796V28.0098H50.6297V23.6599H30.6198V28.0098H24.5299V32.3598H29.7498L50.6297 43.6697H55.8496V39.3197H51.9346Z" fill="#FF4A14"/>
<path d="M29.7498 36.7098H24.5299V41.0597H28.4448L48.4547 51.8998V52.3696H29.7498V56.7196H49.7597V52.3696H55.8496V48.0197H50.6297L29.7498 36.7098Z" fill="#FF4A14"/>
<path fill-rule="evenodd" clip-rule="evenodd" d="M8 40.1897C8 22.4129 22.4129 8 40.1897 8C57.9666 8 72.3795 22.4129 72.3795 40.1897C72.3795 57.9666 57.9666 72.3795 40.1897 72.3795C22.4129 72.3795 8 57.9666 8 40.1897ZM9.73999 40.1897C9.73999 57.0038 23.3757 70.6395 40.1897 70.6395C57.0038 70.6395 70.6395 57.0038 70.6395 40.1897C70.6395 23.3757 57.0038 9.73999 40.1897 9.73999C23.3757 9.73999 9.73999 23.3757 9.73999 40.1897Z" fill="#FF4A14"/>
</svg>
