<svg width="196" height="65" viewBox="0 0 196 65" fill="none" xmlns="http://www.w3.org/2000/svg">
<path d="M43.9346 31.3197L23.9248 20.4796V20.0098H42.6297V15.6599H22.6198V20.0098H16.5299V24.3598H21.7498L42.6297 35.6697H47.8496V31.3197H43.9346Z" fill="#FF4A14"/>
<path d="M21.7498 28.7098H16.5299V33.0597H20.4448L40.4547 43.8998V44.3696H21.7498V48.7196H41.7597V44.3696H47.8496V40.0197H42.6297L21.7498 28.7098Z" fill="#FF4A14"/>
<path fill-rule="evenodd" clip-rule="evenodd" d="M0 32.1897C0 14.4129 14.4129 0 32.1897 0C49.9666 0 64.3795 14.4129 64.3795 32.1897C64.3795 49.9666 49.9666 64.3795 32.1897 64.3795C14.4129 64.3795 0 49.9666 0 32.1897ZM1.73999 32.1897C1.73999 49.0038 15.3757 62.6395 32.1897 62.6395C49.0038 62.6395 62.6395 49.0038 62.6395 32.1897C62.6395 15.3757 49.0038 1.73999 32.1897 1.73999C15.3757 1.73999 1.73999 15.3757 1.73999 32.1897Z" fill="#FF4A14"/>
<path d="M85.3471 27.4286C84.2119 27.4286 83.2463 27.1783 82.4503 26.6777C81.6612 26.1703 81.059 25.4743 80.6437 24.5897C80.2284 23.7051 80.0138 22.6971 80 21.5657C80.0138 20.4069 80.2319 19.3886 80.6541 18.5109C81.0833 17.6263 81.6958 16.9371 82.4919 16.4434C83.2879 15.9497 84.2465 15.7029 85.3679 15.7029C86.5515 15.7029 87.569 15.9909 88.4204 16.5669C89.2787 17.1429 89.8532 17.9314 90.1439 18.9326L88.3166 19.4777C88.0812 18.8331 87.6971 18.3326 87.1641 17.976C86.638 17.6194 86.0324 17.4411 85.3471 17.4411C84.5788 17.4411 83.9454 17.6194 83.4471 17.976C82.9487 18.3257 82.5784 18.8126 82.3361 19.4366C82.0938 20.0537 81.9693 20.7634 81.9623 21.5657C81.9762 22.8 82.2634 23.7977 82.8241 24.5589C83.3917 25.3131 84.2327 25.6903 85.3471 25.6903C86.0808 25.6903 86.6899 25.5257 87.1745 25.1966C87.659 24.8606 88.0258 24.3771 88.275 23.7463L90.1439 24.2297C89.7563 25.2651 89.1506 26.0571 88.3269 26.6057C87.5032 27.1543 86.51 27.4286 85.3471 27.4286Z" fill="#1C1E1D"/>
<path d="M96.7348 27.4286C95.6204 27.4286 94.6583 27.1783 93.8484 26.6777C93.0455 26.1771 92.426 25.4846 91.9899 24.6C91.5539 23.7154 91.3358 22.7006 91.3358 21.5554C91.3358 20.3897 91.5573 19.368 92.0003 18.4903C92.4433 17.6126 93.0697 16.9303 93.8796 16.4434C94.6894 15.9497 95.6412 15.7029 96.7348 15.7029C97.8562 15.7029 98.8218 15.9531 99.6316 16.4537C100.441 16.9474 101.061 17.6366 101.49 18.5211C101.926 19.3989 102.144 20.4103 102.144 21.5554C102.144 22.7143 101.926 23.736 101.49 24.6206C101.054 25.4983 100.431 26.1874 99.6212 26.688C98.8114 27.1817 97.8493 27.4286 96.7348 27.4286ZM96.7348 25.6903C97.8977 25.6903 98.7629 25.3063 99.3305 24.5383C99.8981 23.7703 100.182 22.776 100.182 21.5554C100.182 20.3006 99.8946 19.3029 99.3201 18.5623C98.7456 17.8149 97.8839 17.4411 96.7348 17.4411C95.9527 17.4411 95.3089 17.616 94.8037 17.9657C94.2984 18.3154 93.9211 18.7989 93.6719 19.416C93.4228 20.0331 93.2982 20.7463 93.2982 21.5554C93.2982 22.8034 93.5889 23.8046 94.1703 24.5589C94.7517 25.3131 95.6066 25.6903 96.7348 25.6903Z" fill="#1C1E1D"/>
<path d="M108.832 27.4286C107.787 27.4286 106.891 27.1714 106.143 26.6571C105.396 26.136 104.818 25.4331 104.409 24.5486C104.008 23.664 103.807 22.6663 103.807 21.5554C103.807 20.4446 104.008 19.4469 104.409 18.5623C104.818 17.6777 105.396 16.9817 106.143 16.4743C106.891 15.96 107.784 15.7029 108.822 15.7029C109.881 15.7029 110.771 15.9566 111.49 16.464C112.21 16.9714 112.754 17.6674 113.121 18.552C113.494 19.4366 113.681 20.4377 113.681 21.5554C113.681 22.6594 113.494 23.6571 113.121 24.5486C112.754 25.4331 112.21 26.136 111.49 26.6571C110.771 27.1714 109.885 27.4286 108.832 27.4286ZM109.061 25.752C109.815 25.752 110.435 25.5737 110.919 25.2171C111.404 24.8537 111.76 24.3566 111.989 23.7257C112.224 23.088 112.342 22.3646 112.342 21.5554C112.342 20.7326 112.224 20.0091 111.989 19.3851C111.76 18.7543 111.407 18.264 110.93 17.9143C110.452 17.5577 109.847 17.3794 109.113 17.3794C108.351 17.3794 107.722 17.5646 107.223 17.9349C106.732 18.3051 106.365 18.8057 106.123 19.4366C105.887 20.0674 105.77 20.7737 105.77 21.5554C105.77 22.344 105.891 23.0571 106.133 23.6949C106.375 24.3257 106.739 24.8263 107.223 25.1966C107.715 25.5669 108.327 25.752 109.061 25.752ZM112.342 27.12V18.9429H112.134V12.3086H113.993V27.12H112.342Z" fill="#1C1E1D"/>
<path d="M121.761 27.4286C120.66 27.4286 119.698 27.1886 118.874 26.7086C118.058 26.2217 117.421 25.5463 116.964 24.6823C116.507 23.8114 116.279 22.7966 116.279 21.6377C116.279 20.424 116.504 19.3749 116.954 18.4903C117.403 17.5989 118.03 16.9131 118.833 16.4331C119.643 15.9463 120.591 15.7029 121.678 15.7029C122.806 15.7029 123.765 15.96 124.554 16.4743C125.35 16.9886 125.945 17.7223 126.34 18.6754C126.741 19.6286 126.914 20.7634 126.859 22.08H124.99V21.4217C124.969 20.0571 124.689 19.0389 124.149 18.3669C123.609 17.688 122.806 17.3486 121.74 17.3486C120.598 17.3486 119.729 17.712 119.134 18.4389C118.539 19.1657 118.241 20.208 118.241 21.5657C118.241 22.8754 118.539 23.8903 119.134 24.6103C119.729 25.3303 120.577 25.6903 121.678 25.6903C122.418 25.6903 123.062 25.5223 123.609 25.1863C124.156 24.8503 124.585 24.3669 124.896 23.736L126.672 24.3429C126.236 25.3234 125.578 26.0846 124.699 26.6263C123.827 27.1611 122.847 27.4286 121.761 27.4286ZM117.618 22.08V20.6091H125.903V22.08H117.618Z" fill="#1C1E1D"/>
<path d="M130.24 27.12V15.4046C130.24 15.1166 130.254 14.8251 130.281 14.5303C130.309 14.2286 130.371 13.9371 130.468 13.656C130.565 13.368 130.724 13.104 130.946 12.864C131.202 12.5829 131.482 12.384 131.787 12.2674C132.091 12.144 132.399 12.0686 132.711 12.0411C133.029 12.0137 133.33 12 133.614 12H135.037V13.5223H133.718C133.171 13.5223 132.763 13.656 132.493 13.9234C132.223 14.184 132.088 14.5817 132.088 15.1166V27.12H130.24ZM128.34 17.5234V16.0114H135.037V17.5234H128.34Z" fill="#1C1E1D"/>
<path d="M140.951 27.408C140.231 27.408 139.611 27.2949 139.092 27.0686C138.58 26.8423 138.154 26.5406 137.815 26.1634C137.476 25.7863 137.209 25.368 137.016 24.9086C136.822 24.4491 136.683 23.9794 136.6 23.4994C136.524 23.0194 136.486 22.5703 136.486 22.152V16.0114H138.355V21.576C138.355 22.0971 138.403 22.6011 138.5 23.088C138.597 23.5749 138.76 24.0137 138.988 24.4046C139.224 24.7954 139.535 25.104 139.923 25.3303C140.317 25.5566 140.809 25.6697 141.397 25.6697C141.861 25.6697 142.283 25.5909 142.664 25.4331C143.044 25.2754 143.37 25.0423 143.64 24.7337C143.91 24.4183 144.117 24.0206 144.263 23.5406C144.408 23.0606 144.481 22.5017 144.481 21.864L145.696 22.2343C145.696 23.304 145.498 24.2263 145.104 25.0011C144.716 25.776 144.166 26.3726 143.453 26.7909C142.747 27.2023 141.913 27.408 140.951 27.408ZM144.688 27.12V24.1474H144.481V16.0114H146.339V27.12H144.688Z" fill="#1C1E1D"/>
<path d="M157.231 27.12V21.5554C157.231 21.0274 157.182 20.52 157.085 20.0331C156.995 19.5463 156.833 19.1109 156.597 18.7269C156.369 18.336 156.057 18.0274 155.663 17.8011C155.275 17.5749 154.784 17.4617 154.188 17.4617C153.725 17.4617 153.302 17.5406 152.922 17.6983C152.548 17.8491 152.226 18.0823 151.956 18.3977C151.686 18.7131 151.475 19.1109 151.323 19.5909C151.177 20.064 151.105 20.6229 151.105 21.2674L149.89 20.8971C149.89 19.8206 150.084 18.8983 150.471 18.1303C150.866 17.3554 151.416 16.7623 152.122 16.3509C152.835 15.9326 153.673 15.7234 154.635 15.7234C155.362 15.7234 155.981 15.8366 156.493 16.0629C157.006 16.2891 157.431 16.5909 157.77 16.968C158.11 17.3383 158.376 17.7566 158.57 18.2229C158.764 18.6823 158.899 19.152 158.975 19.632C159.058 20.1051 159.099 20.5543 159.099 20.9794V27.12H157.231ZM149.236 27.12V16.0114H150.897V18.984H151.105V27.12H149.236Z" fill="#1C1E1D"/>
<path d="M166.1 27.4286C165.055 27.4286 164.158 27.1714 163.411 26.6571C162.663 26.136 162.085 25.4331 161.677 24.5486C161.275 23.664 161.074 22.6663 161.074 21.5554C161.074 20.4446 161.275 19.4469 161.677 18.5623C162.085 17.6777 162.663 16.9817 163.411 16.4743C164.158 15.96 165.051 15.7029 166.089 15.7029C167.148 15.7029 168.038 15.9566 168.758 16.464C169.478 16.9714 170.021 17.6674 170.388 18.552C170.762 19.4366 170.948 20.4377 170.948 21.5554C170.948 22.6594 170.762 23.6571 170.388 24.5486C170.021 25.4331 169.478 26.136 168.758 26.6571C168.038 27.1714 167.152 27.4286 166.1 27.4286ZM166.328 25.752C167.083 25.752 167.702 25.5737 168.187 25.2171C168.671 24.8537 169.028 24.3566 169.256 23.7257C169.491 23.088 169.609 22.3646 169.609 21.5554C169.609 20.7326 169.491 20.0091 169.256 19.3851C169.028 18.7543 168.675 18.264 168.197 17.9143C167.719 17.5577 167.114 17.3794 166.38 17.3794C165.619 17.3794 164.989 17.5646 164.49 17.9349C163.999 18.3051 163.632 18.8057 163.39 19.4366C163.154 20.0674 163.037 20.7737 163.037 21.5554C163.037 22.344 163.158 23.0571 163.4 23.6949C163.642 24.3257 164.006 24.8263 164.49 25.1966C164.982 25.5669 165.594 25.752 166.328 25.752ZM169.609 27.12V18.9429H169.401V12.3086H171.26V27.12H169.609Z" fill="#1C1E1D"/>
<path d="M179.028 27.4286C177.927 27.4286 176.965 27.1886 176.142 26.7086C175.325 26.2217 174.688 25.5463 174.231 24.6823C173.774 23.8114 173.546 22.7966 173.546 21.6377C173.546 20.424 173.771 19.3749 174.221 18.4903C174.671 17.5989 175.297 16.9131 176.1 16.4331C176.91 15.9463 177.858 15.7029 178.945 15.7029C180.073 15.7029 181.032 15.96 181.821 16.4743C182.617 16.9886 183.212 17.7223 183.607 18.6754C184.008 19.6286 184.181 20.7634 184.126 22.08H182.257V21.4217C182.236 20.0571 181.956 19.0389 181.416 18.3669C180.876 17.688 180.073 17.3486 179.007 17.3486C177.865 17.3486 176.996 17.712 176.401 18.4389C175.806 19.1657 175.508 20.208 175.508 21.5657C175.508 22.8754 175.806 23.8903 176.401 24.6103C176.996 25.3303 177.844 25.6903 178.945 25.6903C179.686 25.6903 180.329 25.5223 180.876 25.1863C181.423 24.8503 181.852 24.3669 182.164 23.736L183.939 24.3429C183.503 25.3234 182.845 26.0846 181.966 26.6263C181.094 27.1611 180.115 27.4286 179.028 27.4286ZM174.885 22.08V20.6091H183.171V22.08H174.885Z" fill="#1C1E1D"/>
<path d="M190.84 27.4286C189.795 27.4286 188.898 27.1714 188.151 26.6571C187.403 26.136 186.825 25.4331 186.417 24.5486C186.015 23.664 185.815 22.6663 185.815 21.5554C185.815 20.4446 186.015 19.4469 186.417 18.5623C186.825 17.6777 187.403 16.9817 188.151 16.4743C188.898 15.96 189.791 15.7029 190.829 15.7029C191.888 15.7029 192.778 15.9566 193.498 16.464C194.218 16.9714 194.761 17.6674 195.128 18.552C195.502 19.4366 195.689 20.4377 195.689 21.5554C195.689 22.6594 195.502 23.6571 195.128 24.5486C194.761 25.4331 194.218 26.136 193.498 26.6571C192.778 27.1714 191.892 27.4286 190.84 27.4286ZM191.068 25.752C191.823 25.752 192.442 25.5737 192.927 25.2171C193.411 24.8537 193.768 24.3566 193.996 23.7257C194.231 23.088 194.349 22.3646 194.349 21.5554C194.349 20.7326 194.231 20.0091 193.996 19.3851C193.768 18.7543 193.415 18.264 192.937 17.9143C192.459 17.5577 191.854 17.3794 191.12 17.3794C190.359 17.3794 189.729 17.5646 189.23 17.9349C188.739 18.3051 188.372 18.8057 188.13 19.4366C187.895 20.0674 187.777 20.7737 187.777 21.5554C187.777 22.344 187.898 23.0571 188.14 23.6949C188.383 24.3257 188.746 24.8263 189.23 25.1966C189.722 25.5669 190.335 25.752 191.068 25.752ZM194.349 27.12V18.9429H194.141V12.3086H196V27.12H194.349Z" fill="#1C1E1D"/>
<path d="M84.8591 47.9897C83.5232 47.9897 82.4261 47.7017 81.5678 47.1257C80.7164 46.5429 80.1938 45.7303 80 44.688L81.8897 44.3897C82.0419 44.9931 82.3915 45.4731 82.9383 45.8297C83.4851 46.1794 84.1635 46.3543 84.9733 46.3543C85.7416 46.3543 86.3438 46.1966 86.7799 45.8811C87.216 45.5657 87.434 45.1371 87.434 44.5954C87.434 44.28 87.3614 44.0263 87.216 43.8343C87.0706 43.6354 86.7695 43.4503 86.3127 43.2789C85.8628 43.1074 85.181 42.9017 84.2673 42.6617C83.2775 42.4011 82.4988 42.1303 81.9312 41.8491C81.3636 41.568 80.9587 41.2423 80.7164 40.872C80.4741 40.5017 80.353 40.0526 80.353 39.5246C80.353 38.8731 80.533 38.304 80.8929 37.8171C81.2528 37.3234 81.7547 36.9429 82.3984 36.6754C83.0491 36.408 83.8035 36.2743 84.6618 36.2743C85.5132 36.2743 86.2746 36.408 86.946 36.6754C87.6175 36.9429 88.1574 37.3234 88.5657 37.8171C88.9811 38.304 89.2268 38.8731 89.3029 39.5246L87.4133 39.864C87.3233 39.2674 87.0326 38.7977 86.5411 38.4549C86.0566 38.112 85.4302 37.9303 84.6618 37.9097C83.9351 37.8823 83.3432 38.0091 82.8864 38.2903C82.4365 38.5714 82.2115 38.952 82.2115 39.432C82.2115 39.6994 82.2946 39.9291 82.4607 40.1211C82.6338 40.3131 82.9487 40.4949 83.4055 40.6663C83.8693 40.8377 84.5407 41.0331 85.4198 41.2526C86.4096 41.4994 87.1883 41.7703 87.7559 42.0651C88.3304 42.3531 88.7388 42.696 88.9811 43.0937C89.2233 43.4846 89.3445 43.968 89.3445 44.544C89.3445 45.6137 88.9464 46.4571 88.1504 47.0743C87.3544 47.6846 86.2573 47.9897 84.8591 47.9897Z" fill="#1C1E1D"/>
<path d="M96.4934 48C95.3929 48 94.4307 47.76 93.607 47.28C92.7903 46.7931 92.1535 46.1177 91.6966 45.2537C91.2398 44.3829 91.0114 43.368 91.0114 42.2091C91.0114 40.9954 91.2363 39.9463 91.6862 39.0617C92.1362 38.1703 92.7626 37.4846 93.5655 37.0046C94.3754 36.5177 95.3237 36.2743 96.4104 36.2743C97.5386 36.2743 98.4973 36.5314 99.2864 37.0457C100.082 37.56 100.678 38.2937 101.072 39.2469C101.474 40.2 101.647 41.3349 101.591 42.6514H99.7225V41.9931C99.7017 40.6286 99.4214 39.6103 98.8815 38.9383C98.3416 38.2594 97.5386 37.92 96.4727 37.92C95.3306 37.92 94.4619 38.2834 93.8666 39.0103C93.2713 39.7371 92.9737 40.7794 92.9737 42.1371C92.9737 43.4469 93.2713 44.4617 93.8666 45.1817C94.4619 45.9017 95.3098 46.2617 96.4104 46.2617C97.151 46.2617 97.7947 46.0937 98.3416 45.7577C98.8884 45.4217 99.3175 44.9383 99.629 44.3074L101.404 44.9143C100.968 45.8949 100.311 46.656 99.4318 47.1977C98.5596 47.7326 97.5802 48 96.4934 48ZM92.3507 42.6514V41.1806H100.636V42.6514H92.3507Z" fill="#1C1E1D"/>
<path d="M103.903 47.6914V36.5829H105.554V39.2674L105.284 38.9177C105.415 38.5749 105.585 38.2594 105.793 37.9714C106.007 37.6834 106.246 37.4469 106.509 37.2617C106.8 37.0286 107.129 36.8503 107.495 36.7269C107.862 36.6034 108.236 36.5314 108.617 36.5109C108.997 36.4834 109.354 36.5074 109.686 36.5829V38.3006C109.299 38.1977 108.873 38.1703 108.409 38.2183C107.945 38.2663 107.516 38.4343 107.122 38.7223C106.762 38.976 106.481 39.2846 106.281 39.648C106.087 40.0114 105.952 40.4057 105.876 40.8309C105.8 41.2491 105.761 41.6777 105.761 42.1166V47.6914H103.903Z" fill="#1C1E1D"/>
<path d="M114.681 47.6914L110.611 36.5829H112.48L115.626 45.3566L118.762 36.5829H120.641L116.571 47.6914H114.681Z" fill="#1C1E1D"/>
<path d="M122.727 34.6183V32.7257H124.575V34.6183H122.727ZM122.727 47.6914V36.5829H124.575V47.6914H122.727Z" fill="#1C1E1D"/>
<path d="M132.414 48C131.279 48 130.313 47.7497 129.517 47.2491C128.728 46.7417 128.126 46.0457 127.711 45.1611C127.295 44.2766 127.081 43.2686 127.067 42.1371C127.081 40.9783 127.299 39.96 127.721 39.0823C128.15 38.1977 128.763 37.5086 129.559 37.0149C130.355 36.5211 131.314 36.2743 132.435 36.2743C133.618 36.2743 134.636 36.5623 135.487 37.1383C136.346 37.7143 136.92 38.5029 137.211 39.504L135.384 40.0491C135.148 39.4046 134.764 38.904 134.231 38.5474C133.705 38.1909 133.099 38.0126 132.414 38.0126C131.646 38.0126 131.012 38.1909 130.514 38.5474C130.016 38.8971 129.645 39.384 129.403 40.008C129.161 40.6251 129.036 41.3349 129.029 42.1371C129.043 43.3714 129.33 44.3691 129.891 45.1303C130.459 45.8846 131.3 46.2617 132.414 46.2617C133.148 46.2617 133.757 46.0971 134.241 45.768C134.726 45.432 135.093 44.9486 135.342 44.3177L137.211 44.8011C136.823 45.8366 136.218 46.6286 135.394 47.1771C134.57 47.7257 133.577 48 132.414 48Z" fill="#1C1E1D"/>
<path d="M143.885 48C142.784 48 141.822 47.76 140.998 47.28C140.182 46.7931 139.545 46.1177 139.088 45.2537C138.631 44.3829 138.403 43.368 138.403 42.2091C138.403 40.9954 138.628 39.9463 139.078 39.0617C139.528 38.1703 140.154 37.4846 140.957 37.0046C141.767 36.5177 142.715 36.2743 143.802 36.2743C144.93 36.2743 145.889 36.5314 146.678 37.0457C147.474 37.56 148.069 38.2937 148.464 39.2469C148.865 40.2 149.038 41.3349 148.983 42.6514H147.114V41.9931C147.093 40.6286 146.813 39.6103 146.273 38.9383C145.733 38.2594 144.93 37.92 143.864 37.92C142.722 37.92 141.853 38.2834 141.258 39.0103C140.663 39.7371 140.365 40.7794 140.365 42.1371C140.365 43.4469 140.663 44.4617 141.258 45.1817C141.853 45.9017 142.701 46.2617 143.802 46.2617C144.542 46.2617 145.186 46.0937 145.733 45.7577C146.28 45.4217 146.709 44.9383 147.02 44.3074L148.796 44.9143C148.36 45.8949 147.702 46.656 146.823 47.1977C145.951 47.7326 144.972 48 143.885 48ZM139.742 42.6514V41.1806H148.028V42.6514H139.742Z" fill="#1C1E1D"/>
<path d="M155.531 47.9897C154.195 47.9897 153.098 47.7017 152.239 47.1257C151.388 46.5429 150.865 45.7303 150.671 44.688L152.561 44.3897C152.713 44.9931 153.063 45.4731 153.61 45.8297C154.157 46.1794 154.835 46.3543 155.645 46.3543C156.413 46.3543 157.015 46.1966 157.451 45.8811C157.887 45.5657 158.105 45.1371 158.105 44.5954C158.105 44.28 158.033 44.0263 157.887 43.8343C157.742 43.6354 157.441 43.4503 156.984 43.2789C156.534 43.1074 155.852 42.9017 154.939 42.6617C153.949 42.4011 153.17 42.1303 152.603 41.8491C152.035 41.568 151.63 41.2423 151.388 40.872C151.146 40.5017 151.024 40.0526 151.024 39.5246C151.024 38.8731 151.204 38.304 151.564 37.8171C151.924 37.3234 152.426 36.9429 153.07 36.6754C153.721 36.408 154.475 36.2743 155.333 36.2743C156.185 36.2743 156.946 36.408 157.618 36.6754C158.289 36.9429 158.829 37.3234 159.237 37.8171C159.653 38.304 159.898 38.8731 159.974 39.5246L158.085 39.864C157.995 39.2674 157.704 38.7977 157.213 38.4549C156.728 38.112 156.102 37.9303 155.333 37.9097C154.607 37.8823 154.015 38.0091 153.558 38.2903C153.108 38.5714 152.883 38.952 152.883 39.432C152.883 39.6994 152.966 39.9291 153.132 40.1211C153.305 40.3131 153.62 40.4949 154.077 40.6663C154.541 40.8377 155.212 41.0331 156.091 41.2526C157.081 41.4994 157.86 41.7703 158.427 42.0651C159.002 42.3531 159.41 42.696 159.653 43.0937C159.895 43.4846 160.016 43.968 160.016 44.544C160.016 45.6137 159.618 46.4571 158.822 47.0743C158.026 47.6846 156.929 47.9897 155.531 47.9897Z" fill="#1C1E1D"/>
</svg>
